<mxfile host="app.diagrams.net" modified="2023-04-24T23:24:16.766Z" agent="Mozilla/5.0 (X11; Linux x86_64) AppleWebKit/537.36 (KHTML, like Gecko) Chrome/112.0.0.0 Safari/537.36" etag="1OKO15em-QhIm8yRqFw7" version="21.2.1" type="device">
  <diagram name="Página-1" id="19Vy41v5n2b_xbUv3eGG">
    <mxGraphModel dx="880" dy="483" grid="1" gridSize="10" guides="1" tooltips="1" connect="1" arrows="1" fold="1" page="1" pageScale="1" pageWidth="827" pageHeight="1169" math="0" shadow="0">
      <root>
        <mxCell id="0" />
        <mxCell id="1" parent="0" />
        <mxCell id="uMJtlKkwBYt2SvI9Hybp-2" value="CADASTRO DA EMPRESA" style="rounded=0;whiteSpace=wrap;html=1;" vertex="1" parent="1">
          <mxGeometry x="240" y="40" width="326" height="40" as="geometry" />
        </mxCell>
        <mxCell id="uMJtlKkwBYt2SvI9Hybp-3" value="" style="rounded=1;whiteSpace=wrap;html=1;" vertex="1" parent="1">
          <mxGeometry x="120" y="130" width="280" height="30" as="geometry" />
        </mxCell>
        <mxCell id="uMJtlKkwBYt2SvI9Hybp-4" value="CNPJ" style="text;html=1;strokeColor=none;fillColor=none;align=center;verticalAlign=middle;whiteSpace=wrap;rounded=0;" vertex="1" parent="1">
          <mxGeometry x="40" y="115" width="90" height="60" as="geometry" />
        </mxCell>
        <mxCell id="uMJtlKkwBYt2SvI9Hybp-5" value="" style="rounded=1;whiteSpace=wrap;html=1;" vertex="1" parent="1">
          <mxGeometry x="520" y="130" width="280" height="30" as="geometry" />
        </mxCell>
        <mxCell id="uMJtlKkwBYt2SvI9Hybp-6" value="INSCRIÇÃO ESTADUAL" style="text;html=1;strokeColor=none;fillColor=none;align=center;verticalAlign=middle;whiteSpace=wrap;rounded=0;" vertex="1" parent="1">
          <mxGeometry x="450" y="130" width="60" height="30" as="geometry" />
        </mxCell>
        <mxCell id="uMJtlKkwBYt2SvI9Hybp-7" value="" style="rounded=1;whiteSpace=wrap;html=1;" vertex="1" parent="1">
          <mxGeometry x="120" y="200" width="680" height="30" as="geometry" />
        </mxCell>
        <mxCell id="uMJtlKkwBYt2SvI9Hybp-9" value="RAZÃO SOCIAL" style="text;html=1;strokeColor=none;fillColor=none;align=center;verticalAlign=middle;whiteSpace=wrap;rounded=0;" vertex="1" parent="1">
          <mxGeometry x="55" y="200" width="60" height="30" as="geometry" />
        </mxCell>
        <mxCell id="uMJtlKkwBYt2SvI9Hybp-10" value="" style="rounded=1;whiteSpace=wrap;html=1;" vertex="1" parent="1">
          <mxGeometry x="120" y="250" width="680" height="30" as="geometry" />
        </mxCell>
        <mxCell id="uMJtlKkwBYt2SvI9Hybp-11" value="NOME FANTASIA" style="text;html=1;strokeColor=none;fillColor=none;align=center;verticalAlign=middle;whiteSpace=wrap;rounded=0;" vertex="1" parent="1">
          <mxGeometry x="55" y="250" width="60" height="30" as="geometry" />
        </mxCell>
      </root>
    </mxGraphModel>
  </diagram>
</mxfile>
